<svg width="800" height="600" viewBox="0 0 800 600" fill="none" xmlns="http://www.w3.org/2000/svg">
<rect width="800" height="600" fill="white"/>
<path d="M473.969 369.801C555.398 369.801 621.365 303.832 621.365 222.401C621.365 140.969 555.339 75 473.969 75C392.539 75 326.572 141.027 326.572 222.401C326.572 303.774 392.539 369.801 473.969 369.801Z" fill="#1D1D1B"/>
<path d="M473.969 369.801C555.398 369.801 621.365 303.832 621.365 222.401C621.365 140.969 555.339 75 473.969 75C392.539 75 326.572 141.027 326.572 222.401C326.572 303.774 392.539 369.801 473.969 369.801Z" stroke="#1D1D1B" stroke-width="1.0529"/>
<path d="M473.969 524.198C555.398 524.198 621.365 458.23 621.365 376.798C621.365 295.366 555.339 229.397 473.969 229.397C392.539 229.397 326.572 295.366 326.572 376.798C326.572 458.23 392.539 524.198 473.969 524.198Z" fill="#1D1D1B"/>
<path d="M392.775 137.852H394.304V128.622H397.773V127.269H389.307V128.622H392.775V137.852ZM399.478 137.852H406.71V136.5H400.948V133.09H406.357V131.738H400.948V128.622H406.71V127.269H399.478V137.852ZM416.528 134.619C416.175 135.912 415.235 136.735 413.53 136.735C411.531 136.735 410.12 135.207 410.12 132.561C410.12 129.856 411.59 128.445 413.471 128.445C415.176 128.445 416.117 129.327 416.469 130.562L417.939 130.327C417.469 128.328 415.764 127.093 413.53 127.093C410.531 127.093 408.532 129.21 408.532 132.561C408.532 135.795 410.296 138.029 413.412 138.029C415.705 138.029 417.469 136.853 417.939 134.795L416.528 134.619ZM427.346 127.328V131.797H421.702V127.328H420.173V137.852H421.702V133.09H427.346V137.852H428.875V127.328H427.346ZM440.457 137.852V127.328H438.929V136.265L434.049 127.328H431.815V137.852H433.343V128.857L438.223 137.852H440.457ZM444.984 127.328H443.456V137.852H444.984V127.328ZM447.571 130.033C447.571 131.855 449.041 132.62 450.511 132.914L451.863 133.208C453.216 133.502 454.156 133.913 454.156 135.03C454.156 136.089 453.216 136.735 451.687 136.735C449.982 136.735 448.982 135.912 448.747 134.442L447.277 134.678C447.571 136.677 449.159 138.088 451.687 138.088C453.804 138.088 455.744 137.029 455.744 134.913C455.744 132.796 453.804 132.208 452.157 131.855L450.923 131.561C449.923 131.326 449.159 130.915 449.159 129.974C449.159 128.739 450.629 128.445 451.452 128.445C452.51 128.445 453.745 128.857 454.097 130.15L455.567 129.915C455.156 127.975 453.451 127.093 451.511 127.093C449.688 127.093 447.571 127.975 447.571 130.033ZM465.445 134.619C465.092 135.912 464.151 136.735 462.446 136.735C460.447 136.735 459.036 135.207 459.036 132.561C459.036 129.856 460.506 128.445 462.387 128.445C464.092 128.445 465.033 129.327 465.386 130.562L466.856 130.327C466.385 128.328 464.68 127.093 462.446 127.093C459.448 127.093 457.449 129.21 457.449 132.561C457.449 135.795 459.213 138.029 462.329 138.029C464.622 138.029 466.385 136.853 466.856 134.795L465.445 134.619ZM476.204 127.328V131.797H470.619V127.328H469.09V137.852H470.619V133.09H476.263V137.852H477.791V127.328H476.204ZM490.785 137.852L493.725 128.68V137.852H495.253V127.328H492.725L490.021 136.089L487.316 127.328H484.729V137.852H486.258V128.68L489.197 137.852H490.785ZM496.958 137.852H498.546L499.369 135.559H504.249L505.072 137.852H506.718L502.72 127.328H500.956L496.958 137.852ZM501.779 128.857L503.72 134.266H499.839L501.779 128.857ZM515.655 134.619C515.302 135.912 514.361 136.735 512.656 136.735C510.657 136.735 509.246 135.207 509.246 132.561C509.246 129.856 510.716 128.445 512.597 128.445C514.302 128.445 515.243 129.327 515.596 130.562L517.066 130.327C516.595 128.328 514.89 127.093 512.656 127.093C509.658 127.093 507.659 129.21 507.659 132.561C507.659 135.795 509.423 138.029 512.539 138.029C514.832 138.029 516.595 136.853 517.066 134.795L515.655 134.619ZM526.414 127.328V131.797H520.77V127.328H519.241V137.852H520.77V133.09H526.414V137.852H527.943V127.328H526.414ZM530.941 137.852H535.174C537.291 137.852 538.996 137.029 538.996 134.736C538.996 133.443 538.408 132.678 537.35 132.267C538.114 131.855 538.526 130.973 538.526 129.974C538.526 127.857 536.762 127.328 534.763 127.328H530.882V137.852H530.941ZM532.47 133.031H535.115C536.703 133.031 537.467 133.502 537.467 134.736C537.467 135.971 536.703 136.5 535.174 136.5H532.47V133.031ZM532.47 128.622H535.057C536.291 128.622 537.056 129.033 537.056 130.091C537.056 131.326 536.291 131.738 535.057 131.738H532.47V128.622ZM540.113 137.852H541.7L542.523 135.559H547.403L548.227 137.852H549.873L545.875 127.328H544.111L540.113 137.852ZM544.875 128.857L546.815 134.266H542.935L544.875 128.857ZM557.986 137.852H559.691L557.281 133.266C558.574 132.914 559.339 132.032 559.339 130.385C559.339 127.857 557.516 127.328 554.87 127.328H551.578V137.852H553.106V133.56H554.87C555.164 133.56 555.458 133.56 555.693 133.56L557.986 137.852ZM554.929 128.622C556.516 128.622 557.751 128.739 557.751 130.385C557.751 132.032 556.516 132.149 554.929 132.149H553.048V128.622H554.929Z" fill="white"/>
<path d="M415.469 464.756H413.705L411.706 473.575L409.648 464.756H408.002L410.706 475.28H412.529L414.587 466.637L416.645 475.28H418.467L421.113 464.756H419.526L417.527 473.575L415.469 464.756ZM424.641 464.756H423.112V475.28H424.641V464.756ZM434.048 475.339H435.753L433.342 470.753C434.636 470.4 435.4 469.518 435.4 467.872C435.4 465.344 433.577 464.815 430.932 464.815H427.639V475.339H429.168V471.047H430.932C431.226 471.047 431.52 471.047 431.755 471.047L434.048 475.339ZM431.049 466.108C432.637 466.108 433.871 466.226 433.871 467.872C433.871 469.518 432.637 469.636 431.049 469.636H429.168V466.108H431.049ZM440.045 475.339H441.573V466.108H445.042V464.756H436.576V466.108H440.045V475.339ZM446.159 467.461C446.159 469.283 447.629 470.048 449.099 470.341L450.451 470.635C451.803 470.929 452.744 471.341 452.744 472.458C452.744 473.516 451.803 474.163 450.275 474.163C448.57 474.163 447.57 473.34 447.335 471.87L445.865 472.105C446.159 474.104 447.747 475.515 450.275 475.515C452.391 475.515 454.332 474.457 454.332 472.341C454.332 470.224 452.391 469.636 450.745 469.283L449.51 468.989C448.511 468.754 447.747 468.342 447.747 467.402C447.747 466.167 449.216 465.873 450.04 465.873C451.098 465.873 452.333 466.285 452.685 467.578L454.155 467.343C453.744 465.403 452.039 464.521 450.098 464.521C448.335 464.58 446.159 465.461 446.159 467.461ZM464.033 472.047C463.68 473.34 462.739 474.163 461.034 474.163C459.035 474.163 457.624 472.635 457.624 469.989C457.624 467.284 459.094 465.873 460.975 465.873C462.68 465.873 463.621 466.755 463.974 467.99L465.444 467.755C464.973 465.755 463.268 464.521 461.034 464.521C458.036 464.521 456.037 466.637 456.037 469.989C456.037 473.222 457.8 475.457 460.916 475.457C463.209 475.457 464.973 474.281 465.444 472.223L464.033 472.047ZM474.851 464.756V469.224H469.206V464.756H467.678V475.28H469.206V470.518H474.851V475.28H476.379V464.756H474.851ZM478.084 475.339H479.672L480.495 473.046H485.375L486.198 475.339H487.844L483.846 464.815H482.082L478.084 475.339ZM482.905 466.343L484.846 471.753H480.965L482.905 466.343ZM489.608 475.339H491.137V470.577H496.252V469.224H491.137V466.108H496.604V464.756H489.667V475.339H489.608ZM500.544 475.339H502.072V466.108H505.541V464.756H497.075V466.108H500.544V475.339ZM508.775 464.756H507.246V475.28H514.419V473.987H508.775V464.756V464.756ZM517.653 464.756H516.124V475.28H517.653V464.756ZM528.118 472.047C527.765 473.34 526.824 474.163 525.119 474.163C523.12 474.163 521.709 472.635 521.709 469.989C521.709 467.284 523.179 465.873 525.061 465.873C526.766 465.873 527.706 466.755 528.059 467.99L529.529 467.755C529.059 465.755 527.354 464.521 525.119 464.521C522.121 464.521 520.122 466.637 520.122 469.989C520.122 473.222 521.886 475.457 525.002 475.457C527.295 475.457 529.059 474.281 529.529 472.223L528.118 472.047ZM538.936 464.756V469.224H533.292V464.756H531.763V475.28H533.292V470.518H538.936V475.28H540.465V464.756H538.936Z" fill="white"/>
<path d="M326.396 446.823C407.826 446.823 473.793 380.855 473.793 299.423C473.793 217.991 407.826 152.022 326.396 152.022C244.967 152.022 179 218.05 179 299.423C179 380.796 244.967 446.823 326.396 446.823Z" fill="white"/>
<path d="M199.99 295.248H198.226L196.227 304.068L194.17 295.248H192.523L195.228 305.773H197.051L199.108 297.13L201.166 305.773H202.989L205.634 295.248H204.047L202.048 304.068L199.99 295.248ZM207.457 295.248V301.422C207.457 304.773 208.751 305.949 211.749 305.949C214.865 305.949 216.041 304.42 216.041 301.304V295.248H214.512V301.422C214.512 303.538 213.748 304.656 211.69 304.656C209.691 304.656 208.927 303.656 208.927 301.598V295.248H207.457ZM209.28 293.132V294.601H210.632V293.132H209.28ZM212.631 293.132V294.601H213.983V293.132H212.631ZM227.506 305.773V295.248H225.977V304.185L221.097 295.248H218.863V305.773H220.392V296.777L225.272 305.773H227.506ZM230.093 297.953C230.093 299.775 231.563 300.54 233.032 300.834L234.385 301.128C235.737 301.422 236.678 301.833 236.678 302.95C236.678 304.009 235.737 304.656 234.208 304.656C232.503 304.656 231.504 303.832 231.269 302.363L229.799 302.598C230.093 304.597 231.68 306.008 234.208 306.008C236.325 306.008 238.265 304.95 238.265 302.833C238.265 300.716 236.325 300.128 234.679 299.776L233.444 299.482C232.444 299.246 231.68 298.835 231.68 297.894C231.68 296.659 233.15 296.365 233.973 296.365C235.031 296.365 236.266 296.777 236.619 298.07L238.089 297.835C237.677 295.895 235.972 295.013 234.032 295.013C232.209 295.072 230.093 295.895 230.093 297.953ZM247.907 302.539C247.555 303.832 246.614 304.656 244.909 304.656C242.91 304.656 241.499 303.127 241.499 300.481C241.499 297.776 242.969 296.365 244.85 296.365C246.555 296.365 247.496 297.247 247.848 298.482L249.318 298.247C248.848 296.248 247.143 295.013 244.909 295.013C241.91 295.013 239.911 297.13 239.911 300.481C239.911 303.715 241.675 305.949 244.791 305.949C247.084 305.949 248.848 304.773 249.318 302.715L247.907 302.539ZM258.725 295.248V299.717H253.081V295.248H251.552V305.773H253.081V301.01H258.725V305.773H260.254V295.248H258.725ZM263.252 305.773H270.484V304.42H264.722V301.01H270.131V299.658H264.722V296.542H270.484V295.248H263.252V305.773ZM281.42 305.773V295.248H279.891V304.185L275.011 295.248H272.777V305.773H274.306V296.777L279.186 305.773H281.42ZM283.948 297.953C283.948 299.775 285.418 300.54 286.888 300.834L288.24 301.128C289.592 301.422 290.533 301.833 290.533 302.95C290.533 304.009 289.592 304.656 288.063 304.656C286.358 304.656 285.359 303.832 285.124 302.363L283.654 302.598C283.948 304.597 285.535 306.008 288.063 306.008C290.18 306.008 292.12 304.95 292.12 302.833C292.12 300.716 290.18 300.128 288.534 299.776L287.299 299.482C286.3 299.246 285.535 298.835 285.535 297.894C285.535 296.659 287.005 296.365 287.828 296.365C288.887 296.365 290.121 296.777 290.474 298.07L291.944 297.835C291.532 295.895 289.827 295.013 287.887 295.013C286.123 295.072 283.948 295.895 283.948 297.953ZM300.763 295.248H298.999L297 304.068L294.942 295.248H293.296L296.001 305.773H297.823L299.881 297.13L301.939 305.773H303.761L306.407 295.248H304.82L302.821 304.068L300.763 295.248ZM308.406 305.773H315.638V304.42H309.876V301.01H315.285V299.658H309.876V296.542H315.638V295.248H308.406V305.773ZM324.339 305.773H326.044L323.634 301.187C324.927 300.834 325.692 299.952 325.692 298.306C325.692 295.777 323.869 295.248 321.223 295.248H317.931V305.773H319.459V301.481H321.223C321.517 301.481 321.811 301.481 322.046 301.481L324.339 305.773ZM321.341 296.601C322.928 296.601 324.163 296.718 324.163 298.364C324.163 300.011 322.928 300.128 321.341 300.128H319.459V296.601H321.341ZM330.336 305.773H331.865V296.542H335.334V295.248H326.867V296.601H330.336V305.773Z" fill="#1D1D1B"/>
<path d="M456.507 368.801C467.56 348.105 473.792 324.528 473.792 299.481C473.792 223.988 416.997 161.723 343.858 153.139C332.804 173.835 326.572 197.412 326.572 222.459C326.572 297.894 383.308 360.159 456.507 368.801Z" fill="#93FFAF"/>
<path d="M473.792 299.423C473.792 274.493 467.56 250.975 456.624 230.397C383.426 238.981 326.572 301.245 326.572 376.798C326.572 401.727 332.804 425.245 343.74 445.824C416.938 437.24 473.792 374.975 473.792 299.423Z" fill="#93FFAF"/>
<path d="M599.552 299.599C573.624 257.502 527.059 229.397 473.969 229.397C420.878 229.397 374.313 257.502 348.385 299.599C374.313 341.756 420.878 369.801 473.969 369.801C527.059 369.801 573.624 341.756 599.552 299.599Z" fill="#93FFAF"/>
<path d="M456.154 368.743C456.272 368.743 456.389 368.743 456.507 368.802C467.56 348.164 473.792 324.529 473.792 299.482C473.792 274.552 467.56 251.034 456.624 230.456C410.824 235.806 371.432 262.146 348.385 299.658C348.561 299.893 348.679 300.128 348.855 300.422C349.678 301.775 350.56 303.127 351.442 304.479C351.795 305.067 352.206 305.596 352.618 306.184C353.441 307.36 354.264 308.477 355.087 309.653C355.381 310.065 355.734 310.535 356.028 310.947C357.145 312.417 358.262 313.887 359.438 315.298C359.791 315.768 360.202 316.18 360.555 316.65C361.437 317.767 362.378 318.825 363.318 319.884C363.73 320.295 364.083 320.766 364.494 321.177C365.788 322.588 367.022 323.941 368.375 325.293C368.61 325.587 368.904 325.822 369.198 326.116C370.315 327.233 371.491 328.35 372.608 329.467C373.019 329.879 373.431 330.232 373.843 330.584C375.195 331.819 376.547 333.054 377.899 334.23C378.017 334.289 378.076 334.406 378.193 334.465C379.663 335.758 381.192 336.993 382.779 338.228C383.132 338.522 383.544 338.816 383.896 339.11C385.249 340.109 386.542 341.168 387.953 342.108C388.247 342.285 388.482 342.52 388.776 342.696C390.422 343.872 392.069 344.989 393.774 346.106C394.009 346.283 394.303 346.459 394.538 346.577C396.008 347.518 397.536 348.458 399.006 349.34C399.3 349.517 399.653 349.693 399.947 349.928C403.475 351.986 407.12 353.867 410.824 355.631C411.118 355.808 411.471 355.925 411.765 356.102C415.527 357.866 419.349 359.453 423.288 360.923C423.523 360.982 423.759 361.099 423.994 361.158C425.816 361.805 427.698 362.452 429.579 363.04C429.756 363.098 429.873 363.157 430.049 363.216C432.107 363.863 434.224 364.451 436.34 365.039C436.399 365.039 436.458 365.039 436.517 365.097C438.516 365.627 440.515 366.097 442.573 366.567C442.808 366.626 443.043 366.685 443.337 366.744C447.511 367.508 451.803 368.214 456.154 368.743Z" fill="#00FF4A"/>
<path d="M373.609 295.248H372.08V305.773H373.609V295.248ZM385.191 305.773V295.248H383.662V304.185L378.783 295.248H376.548V305.773H378.077V296.777L382.957 305.773H385.191ZM396.832 305.773V295.248H395.304V304.185L390.424 295.248H388.19V305.773H389.718V296.777L394.598 305.773H396.832ZM407.827 300.54C407.827 303.244 406.298 304.714 404.358 304.714C402.418 304.714 400.889 303.244 400.889 300.54C400.889 297.835 402.418 296.365 404.358 296.365C406.298 296.365 407.827 297.835 407.827 300.54ZM409.355 300.54C409.355 297.13 407.298 295.072 404.358 295.072C401.418 295.072 399.302 297.306 399.302 300.54C399.302 303.774 401.242 306.008 404.299 306.008C407.298 305.949 409.355 303.891 409.355 300.54ZM410.355 295.248L414 305.773H415.823L419.468 295.248H417.881L415 304.244L412.06 295.248H410.355ZM419.233 305.773H420.82L421.643 303.48H426.523L427.346 305.773H428.993L424.995 295.248H423.231L419.233 305.773ZM423.995 296.777L425.935 302.186H422.055L423.995 296.777ZM432.05 305.773H433.578V296.542H437.047V295.248H428.581V296.601H432.05V305.773ZM440.34 295.248H438.811V305.773H440.34V295.248ZM442.221 295.248L445.866 305.773H447.689L451.334 295.248H449.747L446.866 304.244L443.926 295.248H442.221Z" fill="#1D1D1B"/>
</svg>
