<svg width="800" height="600" viewBox="0 0 800 600" fill="none" xmlns="http://www.w3.org/2000/svg">
<rect width="800" height="600" fill="white"/>
<path d="M473.969 369.801C555.398 369.801 621.365 303.832 621.365 222.401C621.365 140.969 555.339 75 473.969 75C392.539 75 326.572 141.027 326.572 222.401C326.572 303.774 392.539 369.801 473.969 369.801Z" fill="#1D1D1B"/>
<path d="M473.969 369.801C555.398 369.801 621.365 303.832 621.365 222.401C621.365 140.969 555.339 75 473.969 75C392.539 75 326.572 141.027 326.572 222.401C326.572 303.774 392.539 369.801 473.969 369.801Z" stroke="#1D1D1B" stroke-width="1.0529"/>
<path d="M473.969 524.198C555.398 524.198 621.365 458.23 621.365 376.798C621.365 295.366 555.339 229.397 473.969 229.397C392.539 229.397 326.572 295.366 326.572 376.798C326.572 458.23 392.539 524.198 473.969 524.198Z" fill="#1D1D1B"/>
<path d="M326.396 446.823C407.826 446.823 473.793 380.855 473.793 299.423C473.793 217.991 407.826 152.022 326.396 152.022C244.967 152.022 179 218.05 179 299.423C179 380.796 244.967 446.823 326.396 446.823Z" fill="white"/>
<path d="M456.507 368.801C467.56 348.105 473.792 324.528 473.792 299.481C473.792 223.988 416.997 161.723 343.858 153.139C332.804 173.835 326.572 197.412 326.572 222.459C326.572 297.894 383.308 360.159 456.507 368.801Z" fill="#93FFAF"/>
<path d="M473.792 299.423C473.792 274.493 467.56 250.975 456.624 230.397C383.426 238.981 326.572 301.245 326.572 376.798C326.572 401.727 332.804 425.245 343.74 445.824C416.938 437.24 473.792 374.975 473.792 299.423Z" fill="#93FFAF"/>
<path d="M599.552 299.599C573.624 257.502 527.059 229.397 473.969 229.397C420.878 229.397 374.313 257.502 348.385 299.599C374.313 341.756 420.878 369.801 473.969 369.801C527.059 369.801 573.624 341.756 599.552 299.599Z" fill="#93FFAF"/>
<path d="M456.154 368.743C456.272 368.743 456.389 368.743 456.507 368.802C467.56 348.164 473.792 324.529 473.792 299.482C473.792 274.552 467.56 251.034 456.624 230.456C410.824 235.806 371.432 262.146 348.385 299.658C348.561 299.893 348.679 300.128 348.855 300.422C349.678 301.775 350.56 303.127 351.442 304.479C351.795 305.067 352.206 305.596 352.618 306.184C353.441 307.36 354.264 308.477 355.087 309.653C355.381 310.065 355.734 310.535 356.028 310.947C357.145 312.417 358.262 313.887 359.438 315.298C359.791 315.768 360.202 316.18 360.555 316.65C361.437 317.767 362.378 318.825 363.318 319.884C363.73 320.295 364.083 320.766 364.494 321.177C365.788 322.588 367.022 323.941 368.375 325.293C368.61 325.587 368.904 325.822 369.198 326.116C370.315 327.233 371.491 328.35 372.608 329.467C373.019 329.879 373.431 330.232 373.843 330.584C375.195 331.819 376.547 333.054 377.899 334.23C378.017 334.289 378.076 334.406 378.193 334.465C379.663 335.758 381.192 336.993 382.779 338.228C383.132 338.522 383.544 338.816 383.896 339.11C385.249 340.109 386.542 341.168 387.953 342.108C388.247 342.285 388.482 342.52 388.776 342.696C390.422 343.872 392.069 344.989 393.774 346.106C394.009 346.283 394.303 346.459 394.538 346.577C396.008 347.518 397.536 348.458 399.006 349.34C399.3 349.517 399.653 349.693 399.947 349.928C403.475 351.986 407.12 353.867 410.824 355.631C411.118 355.808 411.471 355.925 411.765 356.102C415.527 357.866 419.349 359.453 423.288 360.923C423.523 360.982 423.759 361.099 423.994 361.158C425.816 361.805 427.698 362.452 429.579 363.04C429.756 363.098 429.873 363.157 430.049 363.216C432.107 363.863 434.224 364.451 436.34 365.039C436.399 365.039 436.458 365.039 436.517 365.097C438.516 365.627 440.515 366.097 442.573 366.567C442.808 366.626 443.043 366.685 443.337 366.744C447.511 367.508 451.803 368.214 456.154 368.743Z" fill="#00FF4A"/>
<path d="M398.54 128.445V138H400.07V128.445H403.61V127.125H395V128.445H398.54ZM404.903 127.125V138H412.283V136.68H406.433V133.065H411.938V131.745H406.433V128.445H412.283V127.125H404.903ZM423.223 134.535H421.738C421.393 135.93 420.328 136.905 418.603 136.905C416.578 136.905 415.138 135.285 415.138 132.54C415.138 129.72 416.638 128.22 418.558 128.22C420.298 128.22 421.348 129.24 421.678 130.59H423.163C422.698 128.265 420.883 126.93 418.633 126.93C415.558 126.93 413.578 129.165 413.578 132.54C413.578 135.855 415.393 138.195 418.513 138.195C420.868 138.195 422.743 136.935 423.223 134.535ZM433.761 127.125H432.231V131.745H426.516V127.125H424.986V138H426.516V133.065H432.231V138H433.761V127.125ZM442.849 138H445.084V127.125H443.554V136.38L438.589 127.125H436.339V138H437.869V128.715L442.849 138ZM449.192 138V127.125H447.662V138H449.192ZM460.898 134.535H459.413C459.068 135.93 458.003 136.905 456.278 136.905C454.253 136.905 452.813 135.285 452.813 132.54C452.813 129.72 454.313 128.22 456.233 128.22C457.973 128.22 459.023 129.24 459.353 130.59H460.838C460.373 128.265 458.558 126.93 456.308 126.93C453.233 126.93 451.253 129.165 451.253 132.54C451.253 135.855 453.068 138.195 456.188 138.195C458.543 138.195 460.418 136.935 460.898 134.535ZM465.261 127.125L461.226 138H462.786L463.626 135.645H468.621L469.476 138H471.126L467.031 127.125H465.261ZM464.091 134.34L466.101 128.67L468.141 134.34H464.091ZM473.948 136.68V127.125H472.418V138H479.693V136.68H473.948ZM484.547 127.125V138H486.077V133.065H491.297V131.745H486.077V128.445H491.612V127.125H484.547ZM492.94 127.125V138H500.32V136.68H494.47V133.065H499.975V131.745H494.47V128.445H500.32V127.125H492.94ZM504.885 127.125L500.85 138H502.41L503.25 135.645H508.245L509.1 138H510.75L506.655 127.125H504.885ZM503.715 134.34L505.725 128.67L507.765 134.34H503.715ZM515.302 126.93C513.547 126.93 511.372 127.83 511.372 129.9C511.372 131.715 512.872 132.54 514.357 132.87L515.707 133.155C517.072 133.455 518.047 133.935 518.047 135.075C518.047 136.14 517.117 136.905 515.512 136.905C513.847 136.905 512.797 136.125 512.512 134.625H511.012C511.297 136.8 512.917 138.195 515.482 138.195C517.642 138.195 519.622 137.07 519.622 134.94C519.622 132.75 517.627 132.12 515.962 131.76L514.702 131.475C513.697 131.25 512.932 130.77 512.932 129.81C512.932 128.595 514.402 128.22 515.242 128.22C516.337 128.22 517.567 128.64 517.942 129.9H519.427C519.007 127.8 517.252 126.93 515.302 126.93ZM522.962 138V127.125H521.432V138H522.962ZM525.548 127.125V138H529.838C532.013 138 533.738 137.1 533.738 134.79C533.738 133.455 533.123 132.645 532.088 132.21C532.838 131.775 533.288 130.845 533.288 129.81C533.288 127.65 531.488 127.125 529.463 127.125H525.548ZM527.078 131.775V128.415H529.703C530.918 128.415 531.743 128.91 531.743 130.02C531.743 131.295 530.948 131.775 529.703 131.775H527.078ZM527.078 136.71V132.99H529.763C531.398 132.99 532.163 133.53 532.163 134.805C532.163 136.035 531.398 136.71 529.853 136.71H527.078ZM537.156 136.68V127.125H535.626V138H542.901V136.68H537.156ZM544.195 127.125V138H551.575V136.68H545.725V133.065H551.23V131.745H545.725V128.445H551.575V127.125H544.195Z" fill="white"/>
<path d="M449.845 464.125H448.165L451.9 475H453.73L457.42 464.125H455.815L452.86 473.425L449.845 464.125ZM460.385 475V464.125H458.855V475H460.385ZM465.717 464.125L461.682 475H463.242L464.082 472.645H469.077L469.932 475H471.582L467.487 464.125H465.717ZM464.547 471.34L466.557 465.67L468.597 471.34H464.547ZM472.874 464.125V475H477.164C479.339 475 481.064 474.1 481.064 471.79C481.064 470.455 480.449 469.645 479.414 469.21C480.164 468.775 480.614 467.845 480.614 466.81C480.614 464.65 478.814 464.125 476.789 464.125H472.874ZM474.404 468.775V465.415H477.029C478.244 465.415 479.069 465.91 479.069 467.02C479.069 468.295 478.274 468.775 477.029 468.775H474.404ZM474.404 473.71V469.99H477.089C478.724 469.99 479.489 470.53 479.489 471.805C479.489 473.035 478.724 473.71 477.179 473.71H474.404ZM484.482 473.68V464.125H482.952V475H490.227V473.68H484.482ZM491.521 464.125V475H498.901V473.68H493.051V470.065H498.556V468.745H493.051V465.445H498.901V464.125H491.521Z" fill="white"/>
<path d="M235.26 295.125H232.29V306H235.26C238.71 306 241.185 304.71 241.185 300.555C241.185 296.415 238.71 295.125 235.26 295.125ZM235.215 296.415C237.465 296.415 239.625 296.865 239.625 300.555C239.625 304.26 237.465 304.71 235.215 304.71H233.82V296.415H235.215ZM243.247 295.125V306H250.627V304.68H244.777V301.065H250.282V299.745H244.777V296.445H250.627V295.125H243.247ZM255.926 294.93C254.171 294.93 251.996 295.83 251.996 297.9C251.996 299.715 253.496 300.54 254.981 300.87L256.331 301.155C257.696 301.455 258.671 301.935 258.671 303.075C258.671 304.14 257.741 304.905 256.136 304.905C254.471 304.905 253.421 304.125 253.136 302.625H251.636C251.921 304.8 253.541 306.195 256.106 306.195C258.266 306.195 260.246 305.07 260.246 302.94C260.246 300.75 258.251 300.12 256.586 299.76L255.326 299.475C254.321 299.25 253.556 298.77 253.556 297.81C253.556 296.595 255.026 296.22 255.866 296.22C256.961 296.22 258.191 296.64 258.566 297.9H260.051C259.631 295.8 257.876 294.93 255.926 294.93ZM263.586 306V295.125H262.056V306H263.586ZM270.447 301.41L272.802 306H274.512L271.992 301.17C273.327 300.81 274.152 299.985 274.152 298.26C274.152 295.65 272.277 295.125 269.622 295.125H266.172V306H267.702V301.425H269.622C269.907 301.425 270.177 301.425 270.447 301.41ZM267.702 296.415H269.742C271.332 296.415 272.577 296.61 272.577 298.29C272.577 299.97 271.332 300.135 269.742 300.135H267.702V296.415ZM279.244 295.125L275.209 306H276.769L277.609 303.645H282.604L283.459 306H285.109L281.014 295.125H279.244ZM278.074 302.34L280.084 296.67L282.124 302.34H278.074ZM286.401 295.125V306H290.691C292.866 306 294.591 305.1 294.591 302.79C294.591 301.455 293.976 300.645 292.941 300.21C293.691 299.775 294.141 298.845 294.141 297.81C294.141 295.65 292.341 295.125 290.316 295.125H286.401ZM287.931 299.775V296.415H290.556C291.771 296.415 292.596 296.91 292.596 298.02C292.596 299.295 291.801 299.775 290.556 299.775H287.931ZM287.931 304.71V300.99H290.616C292.251 300.99 293.016 301.53 293.016 302.805C293.016 304.035 292.251 304.71 290.706 304.71H287.931ZM298.009 304.68V295.125H296.479V306H303.754V304.68H298.009ZM305.049 295.125V306H312.429V304.68H306.579V301.065H312.084V299.745H306.579V296.445H312.429V295.125H305.049Z" fill="#1D1D1B"/>
<path d="M373.82 306V295.125H372.29V306H373.82ZM383.141 306H385.376V295.125H383.846V304.38L378.881 295.125H376.631V306H378.161V296.715L383.141 306ZM394.689 306H396.924V295.125H395.394V304.38L390.429 295.125H388.179V306H389.709V296.715L394.689 306ZM404.303 306.195C407.438 306.195 409.403 303.84 409.403 300.555C409.403 297.27 407.438 294.93 404.303 294.93C401.168 294.93 399.203 297.27 399.203 300.555C399.203 303.84 401.168 306.195 404.303 306.195ZM404.303 304.905C402.323 304.905 400.763 303.36 400.763 300.555C400.763 297.75 402.323 296.22 404.303 296.22C406.283 296.22 407.843 297.75 407.843 300.555C407.843 303.36 406.283 304.905 404.303 304.905ZM411.89 295.125H410.21L413.945 306H415.775L419.465 295.125H417.86L414.905 304.425L411.89 295.125ZM423.05 295.125L419.015 306H420.575L421.415 303.645H426.41L427.265 306H428.915L424.82 295.125H423.05ZM421.88 302.34L423.89 296.67L425.93 302.34H421.88ZM431.598 296.445V306H433.128V296.445H436.668V295.125H428.058V296.445H431.598ZM439.716 306V295.125H438.186V306H439.716ZM443.083 295.125H441.403L445.138 306H446.968L450.658 295.125H449.053L446.098 304.425L443.083 295.125ZM452.318 295.125V306H459.698V304.68H453.848V301.065H459.353V299.745H453.848V296.445H459.698V295.125H452.318Z" fill="#1D1D1B"/>
</svg>
