<svg width="244" height="85" viewBox="0 0 244 85" fill="none" xmlns="http://www.w3.org/2000/svg">
<path d="M44.36 85H53.9887V60.0176C57.3117 62.316 61.3954 63.6751 65.6592 63.6751C76.9894 63.6751 86.518 54.2417 86.518 42.51C86.518 30.7783 76.9894 21.3449 65.6592 21.3449C61.3153 21.3449 57.2316 22.7839 53.8285 25.1622V21.5848H44.38V85H44.36ZM16.3547 64.7743C25.6431 64.7743 34.2309 60.4373 34.2309 51.1839C34.2309 42.9297 27.9252 39.9718 21.119 38.3529L13.8725 36.6541L8.84798 45.1481L17.2756 47.1068C20.5986 47.8662 23.6613 48.8855 23.6613 51.8634C23.6613 55.261 20.0781 56.0205 15.9944 56.0205C11.9107 56.0205 7.56682 54.5815 4.50406 52.6229L0 60.1975C4.60415 63.3353 10.6496 64.7943 16.3547 64.7943V64.7743ZM23.6814 33.9161L33.8906 32.8968C32.3492 26.941 28.3656 23.0437 22.8206 21.4249L18.0563 29.4992C20.7787 30.2586 23.0808 31.7176 23.6814 33.9161ZM65.479 54.0618C59.2734 54.0618 53.9887 48.9654 53.9887 42.51C53.9887 36.0546 59.2734 30.9581 65.479 30.9581C71.6846 30.9581 77.0495 36.0546 77.0495 42.51C77.0495 48.9654 71.6846 54.0618 65.479 54.0618ZM97.8282 63.4152H107.457V0H97.8282V63.4152ZM140.907 64.7743C153.258 64.7743 163.307 54.8213 163.307 42.51C163.307 30.1987 153.258 20.2457 140.907 20.2457C128.556 20.2457 118.767 30.1987 118.767 42.51C118.767 54.8213 128.636 64.7743 140.907 64.7743ZM140.907 55.1611C133.921 55.1611 128.216 49.545 128.216 42.49C128.216 35.435 133.921 29.819 140.907 29.819C147.893 29.819 153.839 35.435 153.839 42.49C153.839 49.545 148.053 55.1611 140.907 55.1611ZM174.617 63.4152H184.246V35.1952C188.33 32.1373 192.934 30.6983 196.677 30.5185V21.0052C192.333 21.185 187.989 22.1044 184.086 24.2429V21.6048H174.637V63.4152H174.617ZM224.002 64.7743L229.287 55.7606L227.325 55.5008C219.658 54.5615 214.814 52.1032 212.772 46.6671H234.391L244 29.9988C239.996 24.043 233.19 20.2257 225.263 20.2257C212.752 20.2257 202.623 29.8389 202.623 42.5899C202.623 55.3409 211.811 64.1747 223.982 64.7743H224.002ZM212.772 38.4329C214.654 32.9168 219.418 29.8389 225.123 29.8389C230.828 29.8389 235.773 32.8168 237.374 38.4329H212.772Z" fill="black"/>
</svg>
