<svg width="150" height="53" viewBox="0 0 150 53" fill="none" xmlns="http://www.w3.org/2000/svg">
<g clip-path="url(#clip0_15_150)">
<path d="M27.2705 52.8061H33.1898V37.2859C35.2326 38.7137 37.743 39.558 40.3643 39.558C47.3296 39.558 53.1873 33.6976 53.1873 26.4093C53.1873 19.121 47.3296 13.2605 40.3643 13.2605C37.6938 13.2605 35.1834 14.1545 33.0913 15.632V13.4095H27.2828V52.8061H27.2705ZM10.0541 40.2409C15.7642 40.2409 21.0436 37.5466 21.0436 31.7979C21.0436 26.67 17.1671 24.8324 12.983 23.8267L8.52818 22.7713L5.43933 28.0482L10.6202 29.265C12.6631 29.7368 14.5459 30.37 14.5459 32.2201C14.5459 34.3308 12.3431 34.8026 9.83264 34.8026C7.32218 34.8026 4.65174 33.9087 2.76889 32.6919L0 37.3976C2.83042 39.347 6.54689 40.2533 10.0541 40.2533V40.2409ZM14.5582 21.0703L20.8344 20.4371C19.8868 16.737 17.4379 14.3159 14.029 13.3102L11.1002 18.3263C12.7738 18.7981 14.189 19.7045 14.5582 21.0703ZM40.2535 33.5858C36.4386 33.5858 33.1898 30.4197 33.1898 26.4093C33.1898 22.3988 36.4386 19.2327 40.2535 19.2327C44.0684 19.2327 47.3665 22.3988 47.3665 26.4093C47.3665 30.4197 44.0684 33.5858 40.2535 33.5858ZM60.1403 39.3966H66.0596V0H60.1403V39.3966ZM86.6232 40.2409C94.2161 40.2409 100.394 34.0577 100.394 26.4093C100.394 18.7609 94.2161 12.5776 86.6232 12.5776C79.0303 12.5776 73.0126 18.7609 73.0126 26.4093C73.0126 34.0577 79.0795 40.2409 86.6232 40.2409ZM86.6232 34.2687C82.3283 34.2687 78.8211 30.7798 78.8211 26.3969C78.8211 22.0139 82.3283 18.525 86.6232 18.525C90.918 18.525 94.573 22.0139 94.573 26.3969C94.573 30.7798 91.0165 34.2687 86.6232 34.2687ZM107.347 39.3966H113.266V21.8649C115.777 19.9653 118.607 19.0713 120.908 18.9595V13.0494C118.238 13.1612 115.567 13.7323 113.168 15.0609V13.4219H107.359V39.3966H107.347ZM137.706 40.2409L140.955 34.6412L139.749 34.4798C135.036 33.8962 132.058 32.369 130.802 28.9918H144.093L150 18.6367C147.539 14.9367 143.355 12.5652 138.481 12.5652C130.79 12.5652 124.563 18.5374 124.563 26.4589C124.563 34.3805 130.212 39.8684 137.694 40.2409H137.706ZM130.802 23.8764C131.959 20.4495 134.888 18.5374 138.395 18.5374C141.903 18.5374 144.942 20.3874 145.927 23.8764H130.802Z" fill="black"/>
</g>
<defs>
<clipPath id="clip0_15_150">
<rect width="150" height="52.8061" fill="white"/>
</clipPath>
</defs>
</svg>
